<svg width="234" height="234" viewBox="0 0 234 234" fill="none" xmlns="http://www.w3.org/2000/svg">
<g clip-path="url(#clip0_315_372)">
<path fill-rule="evenodd" clip-rule="evenodd" d="M214.25 292.25H87.5C76.7311 292.25 68 283.519 68 272.75V87.5C68 76.7311 76.7311 68 87.5 68H179.993C180.003 68 180.018 68 180.027 68H180.125C181.685 68 183.016 68.7849 183.908 69.9256L231.824 117.842C232.97 118.734 233.75 120.065 233.75 121.625V121.727C233.75 121.737 233.75 121.742 233.75 121.752V272.75C233.75 283.519 225.019 292.25 214.25 292.25ZM185 84.4824V116.75H217.268L185 84.4824ZM224 126.5H180.125C177.429 126.5 175.25 124.316 175.25 121.625V77.75H87.5C82.118 77.75 77.75 82.118 77.75 87.5V272.75C77.75 278.132 82.118 282.5 87.5 282.5H214.25C219.632 282.5 224 278.132 224 272.75V126.5ZM194.75 253.25H107C104.304 253.25 102.125 251.071 102.125 248.375C102.125 245.684 104.304 243.5 107 243.5H194.75C197.446 243.5 199.625 245.684 199.625 248.375C199.625 251.071 197.446 253.25 194.75 253.25ZM194.75 214.25H107C104.304 214.25 102.125 212.071 102.125 209.375C102.125 206.684 104.304 204.5 107 204.5H194.75C197.446 204.5 199.625 206.684 199.625 209.375C199.625 212.071 197.446 214.25 194.75 214.25ZM194.75 175.25H107C104.304 175.25 102.125 173.071 102.125 170.375C102.125 167.684 104.304 165.5 107 165.5H194.75C197.446 165.5 199.625 167.684 199.625 170.375C199.625 173.071 197.446 175.25 194.75 175.25Z" fill="#8E8989"/>
</g>
<defs>
<clipPath id="clip0_315_372">
<rect width="234" height="234" fill="white"/>
</clipPath>
</defs>
</svg>
