<svg width="502" height="110" viewBox="0 0 502 110" fill="none" xmlns="http://www.w3.org/2000/svg">
<path d="M400 30V110L0 110L36 30L400 30Z" fill="url(#paint0_linear_398_3289)"/>
<path d="M102 0V80L502 80L466 0L102 0Z" fill="url(#paint1_linear_398_3289)"/>
<path d="M155.32 70V13.36H197.56V21.04H163.96V37.84H192.28V45.52H163.96V62.32H197.56V70H155.32ZM219.507 21.04V43.12H236.947C248.467 43.12 248.467 43.12 248.467 32.08C248.467 21.04 248.467 21.04 236.947 21.04H219.507ZM246.867 49.2L260.307 67.12V70H250.707C243.987 61.04 239.907 55.6 239.907 50.8H219.507V70H210.867V13.36H229.267C248.467 13.36 258.067 13.36 258.067 31.12C258.067 40.8 255.187 42.96 246.867 49.2ZM281.773 21.04V43.12H299.213C310.733 43.12 310.733 43.12 310.733 32.08C310.733 21.04 310.733 21.04 299.213 21.04H281.773ZM309.133 49.2L322.573 67.12V70H312.973C306.253 61.04 302.173 55.6 302.173 50.8H281.773V70H273.133V13.36H291.533C310.733 13.36 320.333 13.36 320.333 31.12C320.333 40.8 317.453 42.96 309.133 49.2ZM357.958 12.08H363.718C388.678 12.08 388.678 26.8 388.678 39.28V44.08C388.678 56.56 388.678 71.28 363.718 71.28H357.958C332.998 71.28 332.998 56.56 332.998 44.08V39.28C332.998 26.8 332.998 12.08 357.958 12.08ZM342.598 40.72V42.64C342.598 62.8 342.678 62.8 360.838 62.8C379.078 62.8 379.078 62.72 379.078 42.64V40.72C379.078 20.56 378.998 20.56 360.838 20.56C342.598 20.56 342.598 20.64 342.598 40.72ZM411.538 21.04V43.12H428.978C440.498 43.12 440.498 43.12 440.498 32.08C440.498 21.04 440.498 21.04 428.978 21.04H411.538ZM438.898 49.2L452.338 67.12V70H442.738C436.018 61.04 431.938 55.6 431.938 50.8H411.538V70H402.898V13.36H421.298C440.498 13.36 450.098 13.36 450.098 31.12C450.098 40.8 447.218 42.96 438.898 49.2Z" fill="white"/>
<defs>
<linearGradient id="paint0_linear_398_3289" x1="207.5" y1="85" x2="200" y2="-23.5" gradientUnits="userSpaceOnUse">
<stop stop-color="#B3B3B3"/>
<stop offset="1" stop-color="#4D4D4D"/>
</linearGradient>
<linearGradient id="paint1_linear_398_3289" x1="309.632" y1="76.3052" x2="311.183" y2="-59.3967" gradientUnits="userSpaceOnUse">
<stop stop-color="#E21A1A"/>
<stop offset="1" stop-color="#7C0E0E"/>
</linearGradient>
</defs>
</svg>
