<svg width="85" height="31" viewBox="0 0 85 31" fill="none" xmlns="http://www.w3.org/2000/svg">
<path d="M14.9249 14.8148H27.1124" stroke="#8E8989" stroke-width="2" stroke-linecap="round" stroke-linejoin="round"/>
<path d="M22.4343 26.5648H22.9343V26.0648V23.7523H23.8093V27.0023C23.8093 27.1184 23.7632 27.2296 23.6812 27.3117C23.5991 27.3937 23.4879 27.4398 23.3718 27.4398H6.49683C6.38079 27.4398 6.26951 27.3937 6.18747 27.3117C6.10542 27.2296 6.05933 27.1184 6.05933 27.0023V2.62732C6.05933 2.51129 6.10542 2.40001 6.18747 2.31796C6.26951 2.23591 6.38079 2.18982 6.49683 2.18982H23.3718C23.4879 2.18982 23.5991 2.23591 23.6812 2.31796C23.7632 2.40001 23.8093 2.51129 23.8093 2.62732V5.87732H22.9343V3.56482V3.06482H22.4343H7.43433H6.93433V3.56482V26.0648V26.5648H7.43433H22.4343Z" fill="#8E8989" stroke="#8E8989"/>
<path d="M27.1124 14.8148L23.3624 18.5648" stroke="#8E8989" stroke-width="2" stroke-linecap="round" stroke-linejoin="round"/>
<path d="M27.1124 14.8148L23.3624 11.0648" stroke="#8E8989" stroke-width="2" stroke-linecap="round" stroke-linejoin="round"/>
<path d="M23.3624 7.3992V5.5242" stroke="#8E8989" stroke-width="2.5" stroke-linecap="round" stroke-linejoin="round"/>
<path d="M23.3624 24.1898V22.3148" stroke="#8E8989" stroke-width="2.5" stroke-linecap="round" stroke-linejoin="round"/>
<path d="M31.6186 19.8148V12.2548H35.1136C36.9136 12.2548 38.5786 12.2548 38.5786 14.1448C38.5786 14.7748 38.5786 15.5848 37.1386 15.9448V16.1248C38.5786 16.4848 38.7286 17.2948 38.7286 17.9248C38.7286 19.8148 36.9136 19.8148 35.1136 19.8148H31.6186ZM35.6686 16.5748H33.1486V18.5548H35.6686C37.0186 18.5548 37.0186 18.5398 37.0186 17.5648C37.0186 16.5748 37.0036 16.5748 35.6686 16.5748ZM35.5186 13.5148H33.1486V15.4948H35.5186C36.8686 15.4948 36.8686 15.4798 36.8686 14.5048C36.8686 13.5148 36.8536 13.5148 35.5186 13.5148ZM49.2297 12.2548H50.7597V19.8148H49.2297V12.2548ZM40.9497 19.8148V12.2548H42.4797V14.8648C43.1997 14.6848 43.9197 14.5948 44.5497 14.5948C47.6997 14.5948 47.6997 16.3948 47.6997 17.2948C47.6997 19.8148 46.0797 19.8148 44.1897 19.8148H40.9497ZM44.3697 16.0348H42.4797V18.5548H44.3697C46.0797 18.5548 46.0797 18.5548 46.0797 17.2948C46.0797 16.0348 46.0797 16.0348 44.3697 16.0348ZM57.7972 11.1148H56.9572C55.9372 11.1148 55.2172 11.1148 54.2722 10.0048L55.3522 9.19482C55.8472 9.85482 55.8622 9.85482 56.6722 9.85482H58.0822C58.9072 9.85482 58.9222 9.85482 59.4022 9.19482L60.4822 10.0048C59.5372 11.1148 58.8172 11.1148 57.7972 11.1148ZM55.4272 19.8148H53.3422V12.2548H54.8722V18.5248H55.2772C55.2772 17.7298 55.2772 17.4598 59.1922 12.2548H61.2622V19.8148H59.7322V13.5448H59.3422C59.3422 14.3398 59.3422 14.6098 55.4272 19.8148ZM70.6402 12.2548V13.5748H67.6552V19.8148H66.0652V13.5748H63.0802V12.2548H70.6402ZM74.5435 19.8148H72.4585V12.2548H73.9885V18.5248H74.3935C74.3935 17.7298 74.3935 17.4598 78.3085 12.2548H80.3785V19.8148H78.8485V13.5448H78.4585C78.4585 14.3398 78.4585 14.6098 74.5435 19.8148Z" fill="#8E8989"/>
</svg>
