<svg width="53" height="23" viewBox="0 0 53 23" fill="none" xmlns="http://www.w3.org/2000/svg">
<path d="M35.8111 5.75L27.2162 17.2503H20.0541L28.6487 5.75H35.8111ZM41.5269 14.3752C40.3296 14.3752 39.674 13.015 40.3803 12.0734L45.122 5.75H37.9599L34.7261 10.0592C33.9499 11.0937 33.9528 11.894 34.7261 12.933L36.8607 15.7894C37.9479 17.2442 39.0213 17.2503 40.8245 17.2503H45.8379C50.1341 17.25 53 14.3739 53 10.0627V7.18758C53 2.87678 50.1347 0 45.8379 0H39.392C39.0936 0 38.6758 1.92988e-07 38.3177 0.359395C37.9596 0.718791 37.9596 1.13809 37.9596 1.43758V2.87516H45.8379C46.7332 2.87516 47.2704 3.41426 47.2704 4.31274V12.9379C47.2704 13.8364 46.7332 14.3755 45.8379 14.3755H41.5269V14.3752ZM14.3384 8.62484C15.5357 8.62484 16.1909 9.98504 15.485 10.9266L10.7433 17.25H17.9054L21.1392 12.9411C21.9154 11.9067 21.9125 11.1063 21.1392 10.0673L19.0046 7.2109C17.9174 5.75615 16.844 5.74968 15.0408 5.74968H1.43248C1.13405 5.74968 0.716243 5.74968 0.358121 6.10907C1.92303e-07 6.46847 0 6.88776 0 7.18726V8.62484H2.86497V23H8.59491V8.62484H14.3384Z" fill="#E7001C"/>
</svg>
