<svg width="89" height="38" viewBox="0 0 89 38" fill="none" xmlns="http://www.w3.org/2000/svg">
<path d="M60.1357 9.5L45.7027 28.5005H33.6758L48.1082 9.5H60.1357ZM69.7338 23.7503C67.7233 23.7503 66.6224 21.503 67.8084 19.9474L75.7709 9.5H63.7439L58.3137 16.6195C57.0102 18.3287 57.0151 19.651 58.3137 21.3676L61.8981 26.0869C63.7239 28.4904 65.5264 28.5005 68.5544 28.5005H76.9731C84.1874 28.5 89 23.7481 89 16.6254V11.8751C89 4.75294 84.1885 0 76.9731 0H66.1489C65.6477 0 64.9462 3.18849e-07 64.3448 0.593784C63.7434 1.18757 63.7434 1.88032 63.7434 2.37513V4.75027H76.9731C78.4765 4.75027 79.3786 5.64095 79.3786 7.1254V21.3757C79.3786 22.8601 78.4765 23.7508 76.9731 23.7508H69.7338V23.7503ZM24.0777 14.2497C26.0882 14.2497 27.1886 16.497 26.0032 18.0526L18.0407 28.5H30.0676L35.4978 21.381C36.8013 19.6719 36.7965 18.3495 35.4978 16.6329L31.9134 11.9137C30.0876 9.51017 28.2851 9.49947 25.2571 9.49947H2.40549C1.90435 9.49947 1.20275 9.49947 0.601374 10.0933C3.22925e-07 10.687 0 11.3798 0 11.8746V14.2497H4.81099V38H14.433V14.2497H24.0777Z" fill="#E7001C"/>
</svg>
